<?xml version="1.0" standalone="no"?>
<!DOCTYPE svg PUBLIC "-//W3C//DTD SVG 20010904//EN"
 "http://www.w3.org/TR/2001/REC-SVG-20010904/DTD/svg10.dtd">
<svg version="1.0" xmlns="http://www.w3.org/2000/svg"
 width="512.000000pt" height="512.000000pt" viewBox="0 0 512.000000 512.000000"
 preserveAspectRatio="xMidYMid meet">
<metadata>
Created by potrace 1.16, written by Peter Selinger 2001-2019
</metadata>
<g transform="translate(0.000000,512.000000) scale(0.100000,-0.100000)"
fill="#000000" stroke="none">
<path d="M0 2560 l0 -2560 2560 0 2560 0 0 2560 0 2560 -2560 0 -2560 0 0
-2560z m2287 413 c0 -107 5 -113 97 -113 l72 0 3 -47 c2 -41 0 -45 -13 -33
-14 10 -16 10 -16 -5 0 -15 -7 -17 -48 -11 -69 9 -92 -10 -93 -77 0 -41 -2
-48 -10 -32 -8 16 -8 15 -2 -5 11 -39 15 -463 4 -456 -5 3 -7 -2 -4 -12 3 -11
-1 -19 -9 -19 -7 0 -21 -4 -31 -8 -16 -7 -17 8 -15 261 l3 269 23 3 c12 2 22
9 22 17 0 20 -27 26 -35 8 -4 -12 -11 -6 -26 25 -12 23 -25 39 -30 36 -5 -3
-9 2 -9 11 0 11 6 15 19 10 14 -4 20 0 23 20 3 14 1 28 -5 32 -5 3 -7 1 -4 -4
4 -6 1 -13 -6 -16 -21 -8 -17 26 5 41 10 7 18 22 18 32 0 14 5 18 18 13 16 -6
16 -5 0 14 -12 13 -18 36 -18 70 0 53 4 58 44 58 23 0 24 -2 23 -82z m-1822
57 c4 -6 12 -10 18 -9 29 3 37 -3 43 -37 4 -24 3 -39 -6 -44 -8 -5 -5 -9 8
-12 22 -6 49 -79 36 -99 -8 -14 15 -91 33 -105 27 -23 55 -178 38 -217 -9 -21
3 -37 14 -19 11 18 24 -1 46 -66 15 -47 35 -62 35 -27 0 17 30 34 50 28 10 -3
11 -2 4 4 -6 4 -10 34 -9 69 2 66 34 146 70 176 17 14 18 20 9 45 -9 24 -6 43
14 109 14 43 29 81 34 82 4 2 8 11 8 20 0 24 52 78 74 77 12 0 24 -13 34 -39
14 -36 14 -41 -4 -73 -10 -20 -19 -46 -20 -58 0 -13 -9 -31 -19 -41 -17 -17
-17 -17 -11 3 4 12 2 24 -4 28 -5 3 -10 0 -11 -7 0 -7 -2 -31 -3 -53 -3 -44
-23 -124 -36 -140 -4 -5 -17 -47 -28 -93 -16 -62 -28 -88 -49 -107 -15 -13
-31 -25 -35 -25 -5 0 -8 -5 -8 -10 0 -6 5 -9 11 -8 6 2 14 -3 17 -11 3 -8 0
-11 -7 -7 -6 4 -11 2 -11 -3 0 -6 5 -11 11 -11 28 0 -34 -177 -67 -192 -34
-16 -70 -2 -82 29 -24 66 -25 65 13 48 34 -14 35 -13 24 6 -7 15 -7 24 1 34 7
8 10 20 7 27 -4 8 -6 7 -6 -4 -1 -10 -8 -18 -16 -18 -8 0 -16 -8 -16 -17 -1
-17 -2 -17 -6 -1 -2 9 -13 20 -23 23 -27 8 -48 106 -31 139 17 31 11 82 -10
78 -9 -1 -23 6 -31 15 -34 38 -60 191 -40 230 5 10 6 27 2 37 -6 19 -7 18 -13
-4 -10 -38 -31 -10 -56 75 -19 62 -21 81 -12 107 14 40 14 38 -8 38 -19 0 -35
23 -24 34 10 10 41 7 48 -4z m970 -60 c3 -5 14 -10 24 -10 14 0 17 -6 13 -26
-3 -18 -1 -25 6 -20 7 4 5 -13 -4 -46 -20 -65 -22 -68 -37 -62 -9 3 -12 -15
-13 -64 -2 -73 -37 -177 -56 -165 -7 4 -7 0 -1 -11 6 -12 4 -40 -8 -87 -22
-91 -43 -133 -74 -153 -14 -9 -25 -22 -25 -28 0 -7 9 -2 21 11 22 24 40 22 20
-2 -6 -8 -9 -21 -6 -30 7 -17 -18 -83 -42 -109 -50 -55 -123 30 -127 150 -1
25 2 32 16 32 10 0 18 4 18 9 0 5 -9 7 -20 4 -14 -4 -20 0 -20 10 0 9 -8 21
-18 26 -22 12 -55 112 -47 144 4 16 1 30 -10 40 -9 9 -13 21 -10 27 3 5 2 10
-4 10 -5 0 -17 23 -26 50 -17 51 -14 100 6 100 6 0 8 10 5 23 -3 12 -3 16 0 9
8 -18 24 -4 17 14 -4 12 -1 15 13 12 12 -2 24 -21 35 -58 20 -63 16 -98 -15
-122 -18 -15 -19 -19 -6 -28 11 -7 11 -10 2 -10 -10 0 -10 -5 -2 -21 11 -20
12 -20 25 -2 7 10 11 21 9 24 -2 4 4 10 13 13 10 4 14 4 11 0 -4 -3 -1 -12 6
-20 14 -13 48 -107 44 -121 -4 -16 15 -77 28 -91 15 -15 34 -8 34 12 0 7 9 23
20 35 13 16 17 32 14 50 -7 34 26 77 45 58 10 -9 10 -6 0 16 -10 22 -10 30 0
40 9 9 14 9 21 -3 6 -9 10 -10 10 -3 0 6 -4 15 -10 18 -22 13 5 185 29 185 11
0 25 45 26 85 2 73 29 119 50 85z m512 -125 c13 -14 11 -16 -17 -21 -21 -5
-29 -11 -26 -20 3 -9 -2 -14 -13 -14 -10 0 -21 -7 -25 -15 -9 -23 -131 -21
-145 3 -10 16 -10 16 -11 -1 0 -11 -5 -15 -11 -11 -6 3 -16 0 -21 -7 -7 -10
-11 -11 -14 -2 -8 20 -35 3 -29 -18 7 -21 -14 -99 -27 -99 -4 0 -8 -7 -8 -15
0 -8 -4 -15 -9 -15 -5 0 -7 10 -4 23 4 22 4 22 -12 2 -17 -20 -17 -19 -11 8 4
17 2 27 -5 27 -15 0 -3 66 17 97 8 13 25 25 38 29 17 4 23 11 20 22 -3 10 2 6
10 -8 l15 -25 2 25 c1 23 2 23 9 -5 4 -16 8 -24 9 -17 0 7 5 11 9 8 4 -2 14
-1 21 3 9 6 5 13 -14 25 -14 9 -23 21 -20 26 4 6 62 10 131 10 99 0 129 -3
141 -15z m803 5 c0 -5 7 -10 15 -10 8 0 15 4 15 9 0 9 174 7 230 -3 26 -5 30
-4 15 3 -16 7 -8 10 33 10 l52 1 0 -35 c0 -31 -3 -35 -26 -35 -14 0 -31 -6
-39 -13 -18 -18 -299 -17 -317 1 -7 7 -20 12 -31 12 -13 0 -17 -5 -12 -19 4
-14 -1 -21 -22 -27 -15 -4 -31 -8 -35 -8 -12 -2 -16 -11 -22 -49 -3 -21 -11
-48 -17 -59 -6 -11 -7 -31 -3 -46 12 -43 13 -265 1 -287 -9 -18 -9 -19 7 -5
16 12 20 11 37 -10 10 -14 19 -28 19 -32 0 -5 38 -8 85 -8 59 0 85 -4 85 -12
0 -9 3 -9 12 0 8 8 49 12 120 12 91 0 108 -2 108 -16 0 -8 4 -13 9 -10 21 13
41 -7 41 -40 l0 -33 -207 4 c-115 2 -219 4 -233 4 -14 1 -37 6 -53 12 -21 9
-26 17 -22 33 2 11 2 15 -1 8 -8 -17 -24 -5 -17 13 3 8 0 15 -6 15 -6 0 -11 9
-11 21 0 11 -4 17 -10 14 -18 -11 -24 49 -23 220 1 218 8 273 37 277 14 2 21
10 21 28 0 15 8 29 23 36 13 6 29 17 35 23 14 14 107 15 107 1z m790 0 c-11
-8 5 -9 51 -6 75 5 109 -10 109 -47 0 -12 12 -31 26 -42 22 -17 27 -31 29 -68
0 -26 -2 -47 -7 -47 -10 0 3 -64 14 -68 4 -2 8 -50 8 -107 0 -95 -2 -104 -22
-118 -18 -13 -20 -18 -10 -25 11 -7 10 -11 -3 -16 -14 -5 -16 -15 -12 -46 7
-53 -26 -97 -72 -97 -17 0 -31 4 -31 9 0 4 -7 8 -15 8 -8 0 -15 3 -16 8 0 4
-2 16 -4 27 -3 15 6 24 38 39 23 10 45 18 50 17 4 0 7 12 7 28 0 16 7 45 15
66 11 24 13 41 7 48 -6 7 -11 66 -12 132 -1 106 -3 148 -8 193 -1 8 -11 10
-24 7 -35 -8 -113 19 -112 39 1 10 -6 16 -18 16 -10 0 -16 -4 -13 -10 3 -5 3
-10 -2 -11 -4 0 -17 -3 -28 -6 -75 -18 -125 -14 -125 11 0 8 -9 16 -20 19 -11
3 -18 1 -15 -3 3 -5 -5 -10 -17 -12 -29 -4 -34 -25 -8 -33 l22 -7 -20 -21
c-11 -12 -24 -34 -27 -49 -4 -16 -11 -28 -16 -28 -5 0 -9 -10 -10 -22 -1 -21
-1 -21 -9 3 -4 14 -15 37 -24 50 -12 19 -13 33 -7 55 16 54 23 64 42 64 10 0
19 5 19 10 0 6 6 10 13 10 7 0 18 9 25 20 11 18 23 20 130 20 82 0 113 -3 102
-10z m502 0 c2 -5 23 -12 47 -16 40 -6 44 -5 37 11 -5 15 -2 17 26 11 51 -10
101 -67 79 -89 -20 -20 -11 -55 24 -91 l35 -36 0 -235 c0 -226 -1 -235 -19
-235 -11 0 -23 -4 -26 -10 -3 -5 -13 -10 -21 -10 -13 0 -15 37 -14 268 1 334
2 320 -8 304 -7 -9 -13 -8 -27 8 -10 11 -26 20 -37 20 -10 0 -18 5 -18 11 0 5
-4 8 -9 5 -5 -3 -50 -7 -101 -8 -78 -2 -93 -5 -102 -21 -7 -14 -7 -17 1 -13
20 12 26 -31 19 -121 -3 -48 -4 -155 -1 -236 6 -134 5 -147 -10 -141 -14 5
-16 0 -11 -35 6 -40 5 -41 -25 -41 l-31 0 3 283 c2 155 8 290 12 300 4 9 15
17 24 17 11 0 21 15 30 44 7 26 21 48 34 54 28 13 84 15 89 2z m438 1 c0 -4
15 -7 34 -4 28 3 38 -2 55 -24 12 -16 31 -39 42 -53 26 -30 21 -92 -10 -121
-12 -11 -21 -25 -21 -31 0 -6 11 -1 24 11 14 13 29 20 35 16 13 -7 16 -485 4
-486 -5 0 -20 -2 -35 -4 -17 -2 -29 2 -33 12 -3 9 -5 120 -4 247 0 177 -3 242
-14 278 -14 44 -13 47 7 69 l21 22 -34 -20 c-28 -17 -39 -19 -65 -11 -17 6
-36 17 -43 25 -10 13 -15 12 -40 -6 -15 -11 -39 -21 -53 -23 -14 -2 -28 -7
-32 -13 -4 -6 -8 -2 -8 8 0 10 -4 15 -10 12 -5 -3 -10 -17 -10 -31 0 -29 -30
-33 -51 -7 -10 12 -10 14 -1 9 7 -4 15 -1 18 8 3 9 10 14 14 11 4 -3 10 2 14
10 3 8 0 14 -7 12 -19 -3 -8 36 19 63 21 22 27 23 45 12 12 -8 18 -9 14 -3 -8
14 1 14 26 1 15 -8 19 -7 19 5 0 11 11 15 40 15 22 0 40 -4 40 -9z m-2439 -27
c30 -15 30 -17 24 -69 -8 -64 -2 -79 26 -65 18 10 19 7 19 -55 0 -41 -4 -65
-11 -65 -7 0 -9 -11 -5 -32 16 -78 15 -82 -29 -83 -22 -1 -73 -5 -113 -9 -50
-6 -97 -5 -148 4 -56 10 -80 10 -97 2 -12 -6 -44 -13 -72 -15 -37 -3 -51 -8
-53 -20 -3 -15 8 -22 31 -18 11 2 9 -57 -3 -64 -7 -4 -7 -13 0 -26 6 -11 15
-17 20 -14 5 3 12 -1 17 -8 4 -8 24 -22 43 -32 30 -16 57 -18 205 -16 159 2
172 1 189 -17 10 -12 16 -32 14 -48 l-3 -29 -172 -3 c-112 -2 -174 1 -178 8
-4 6 6 13 24 16 17 4 28 10 25 15 -3 5 -9 7 -14 4 -4 -3 -21 2 -36 10 -27 14
-29 14 -32 -5 -4 -23 -40 -35 -77 -26 -26 7 -60 59 -50 76 3 6 2 10 -3 10 -5
0 -7 11 -4 25 3 20 1 24 -12 19 -14 -6 -17 0 -15 37 1 24 -2 93 -6 153 -7 98
-7 109 8 103 11 -4 14 -2 10 9 -3 7 0 14 6 14 6 0 11 -5 11 -11 0 -5 5 -7 10
-4 6 3 14 -5 19 -18 5 -13 17 -32 27 -41 14 -15 15 -19 3 -27 -12 -7 -12 -9 0
-9 8 0 20 -8 28 -17 13 -16 13 -16 4 4 -6 12 -11 24 -11 27 0 16 84 26 213 24
81 0 152 3 156 8 5 5 11 40 14 77 5 66 4 69 -27 97 -17 17 -39 30 -48 30 -19
0 -22 11 -12 47 3 12 12 19 19 17 7 -3 15 2 18 10 8 20 11 20 48 0z m1207
-253 c17 -21 16 -145 -3 -181 -14 -28 -13 -35 8 -31 5 1 5 -9 2 -21 -4 -13 -4
-20 0 -16 4 4 21 -11 37 -33 16 -22 40 -45 53 -51 14 -6 25 -18 25 -26 0 -12
5 -10 20 6 32 35 160 29 160 -7 0 -18 33 -51 51 -51 5 0 7 -4 4 -10 -4 -6 -59
-10 -131 -10 -71 0 -123 4 -120 9 7 10 -17 21 -45 21 -61 0 -107 61 -95 124 5
24 2 39 -9 49 -12 12 -15 43 -15 148 l0 132 23 -19 c12 -10 28 -25 35 -33z"/>
</g>
</svg>
